<svg width="32" height="26" viewBox="0 0 32 26" fill="none" xmlns="http://www.w3.org/2000/svg">
<path d="M16.6847 14.6179C16.7417 13.5499 17.2677 12.6069 18.0537 11.9409C18.8817 11.2529 19.9287 10.8839 21.0067 10.8889C22.1377 10.8889 23.1787 11.2899 23.9547 11.9409C24.7417 12.6079 25.2617 13.5499 25.3237 14.6179C25.3807 15.7109 24.9437 16.7329 24.1677 17.4869C23.3187 18.2999 22.1837 18.7469 21.0067 18.7379C19.8237 18.7469 18.6897 18.3009 17.8347 17.4869C17.0637 16.7319 16.6217 15.7109 16.6837 14.6179H16.6847ZM9.80467 16.7739C9.80867 17.1909 9.94467 18.0029 10.1417 18.6379C10.5747 20.0029 11.2987 21.2579 12.2667 22.3099C13.3037 23.4509 14.5697 24.3619 15.9797 24.9819C17.5227 25.6589 19.1837 26.0029 20.8607 25.9929C22.5417 25.9979 24.2037 25.6489 25.7407 24.9679C27.1517 24.3429 28.4127 23.4249 29.4537 22.2849C30.4167 21.2279 31.1407 19.9679 31.5737 18.6019C31.9897 17.2789 32.1047 15.8779 31.9067 14.5029C31.7187 13.1859 31.2597 11.9239 30.5517 10.7999C29.8957 9.74688 29.0627 8.82488 28.0827 8.07588L18.0627 0.376877C17.4067 -0.128123 16.3027 -0.123123 15.5837 0.376877C14.8547 0.887877 14.7707 1.73188 15.4157 2.26788L19.5837 5.65888L6.85967 5.67488C5.80667 5.67488 4.80267 6.36188 4.59867 7.23788C4.39567 8.12288 5.10367 8.85788 6.19767 8.86188L12.6407 8.85288L1.09967 17.7059C0.0166736 18.5339 -0.332327 19.9189 0.350674 20.7899C1.04267 21.6809 2.51767 21.6809 3.61567 20.7949L9.88667 15.6639C9.88667 15.6639 9.79367 16.3569 9.80367 16.7729L9.80467 16.7739ZM25.9227 19.0909C24.6267 20.4099 22.8187 21.1589 20.8617 21.1589C18.9027 21.1639 17.0897 20.4239 15.7987 19.1119C15.1897 18.4969 14.7147 17.7569 14.4177 16.9449C13.8617 15.4039 14.0017 13.6899 14.7937 12.2519C15.1847 11.5549 15.7047 10.9289 16.3297 10.4239C17.5857 9.40388 19.1847 8.85188 20.8617 8.84688C22.5327 8.84688 24.1327 9.39388 25.3867 10.4139C26.0277 10.9349 26.5477 11.5499 26.9227 12.2379C27.3137 12.9349 27.5537 13.7109 27.6217 14.5139C27.6947 15.3309 27.5857 16.1539 27.3047 16.9249C27.0017 17.7379 26.5327 18.4769 25.9237 19.0919L25.9227 19.0909Z" fill="black"/>
</svg>
