<svg width="450" height="452" viewBox="0 0 450 452" fill="none" xmlns="http://www.w3.org/2000/svg">
<path d="M231.881 451.062H218.541C217.917 450.833 217.301 450.781 216.677 450.781C209.554 450.438 202.485 449.875 195.476 448.917C182.365 447.22 169.474 444.336 156.926 440.326C135.391 433.432 115.325 423.54 96.727 410.648C79.483 398.663 64.227 384.532 50.94 368.255C35.279 349.147 23.074 328.061 14.421 304.89C6.674 284.314 2.04 263.007 0.624001 241.015C0.571001 239.828 0.395 238.641 0 237.454V214.222C0.396 213.202 0.563001 212.129 0.624001 211.056C0.905001 205.798 1.468 200.539 2.154 195.342C5.548 170.246 13.005 146.442 24.48 123.887C32.394 108.34 42.005 93.875 53.305 80.527C64.499 67.302 77.047 55.484 90.949 45.143C113.618 28.295 138.547 16.143 165.789 8.68597C179.014 5.07197 192.53 2.69797 206.203 1.56297C208.63 1.33397 211.18 1.50996 213.607 0.938965H236.443C238.193 1.44896 240.004 1.16796 241.754 1.33496C250.802 2.12596 259.789 3.26097 268.714 5.01097C296.809 10.551 322.864 21.068 346.948 36.606C365.66 48.644 382.165 63.171 396.578 80.072C408.168 93.64 417.999 108.395 426.027 124.329C435.524 143.156 442.304 162.879 446.155 183.623C448.186 194.588 449.716 205.668 449.769 216.862C449.769 217.601 449.936 218.392 449.998 219.122V232.462C449.769 233.306 449.769 234.212 449.717 235.118C449.717 237.264 449.717 239.418 449.55 241.564C448.53 255.246 446.384 268.753 442.99 282.093C436.492 307.136 426.028 330.369 411.501 351.789C400.703 367.731 388.102 382.091 373.628 394.806C359.216 407.468 343.44 418.152 326.311 426.796C306.579 436.741 285.835 443.644 264.072 447.425C255.71 448.894 247.286 449.852 238.809 450.362C236.576 450.613 234.202 450.56 231.881 451.062ZM140.931 343.66C144.659 343.774 148.845 343.317 153.031 342.42C165.412 339.703 175.929 334.058 184.01 324.051C188.925 317.948 193.058 311.336 196.62 304.38C200.806 296.185 204.305 287.646 207.357 279.002C211.085 268.547 214.251 257.863 216.687 247.065C218.041 241.015 216.52 237.225 209.846 235.141C201.369 232.485 192.831 230.111 184.125 228.185C169.713 225.019 155.186 222.988 140.369 223.489C136.183 223.656 132.007 224.113 127.874 224.843C115.889 226.936 105.715 232.476 97.405 241.234C83.213 256.156 77.567 273.963 81.067 294.258C86.096 323.259 111.764 343.888 140.931 343.66ZM164.84 135.758C164.673 139.996 165.464 144.63 166.766 149.265C169.255 158.085 173.379 166.166 178.241 173.798C189.321 191.156 203.284 206.017 218.435 219.814C219.675 220.948 221.152 221.907 222.735 222.637C224.318 223.428 225.901 223.428 227.536 222.751C229.119 222.074 230.535 221.115 231.722 219.867C236.98 214.67 242.177 209.464 247.154 204.092C254.162 196.459 260.836 188.607 266.886 180.183C272.373 172.55 277.289 164.522 280.903 155.817C284.517 147.164 286.276 138.239 285.089 128.857C283.11 113.372 276.498 100.252 264.68 89.964C250.707 77.82 234.431 72.958 216.114 75.666C186.322 80.079 164.726 106.309 164.84 135.758ZM311.698 343.325C313.166 343.272 315.822 343.325 318.478 342.929C336.337 340.273 350.468 331.621 360.422 316.479C368.222 304.555 371.387 291.321 369.919 277.138C368.565 263.851 363.192 252.209 354.091 242.431C346.177 233.954 336.733 228.071 325.319 225.583C319.041 224.229 312.657 223.657 306.273 223.552C298.702 223.438 291.184 224.115 283.718 225.135C268.796 227.228 254.208 230.789 239.857 235.309C238.389 235.757 237.034 236.443 235.847 237.402C234.317 238.642 233.473 240.172 233.473 242.15C233.473 243.847 233.64 245.544 234.036 247.241C234.942 250.635 235.733 254.021 236.639 257.362C240.825 272.627 245.907 287.55 252.863 301.795C256.873 309.99 261.516 317.737 267.451 324.693C271.971 329.951 277.229 334.243 283.508 337.241C292.089 341.347 301.014 343.554 311.698 343.325Z" fill="black"/>
</svg>
