<svg width="200" height="126" viewBox="0 0 200 126" fill="none" xmlns="http://www.w3.org/2000/svg">
<g clip-path="url(#clip0_4424_232)">
<g clip-path="url(#clip1_4424_232)">
<g clip-path="url(#clip2_4424_232)">
<g clip-path="url(#clip3_4424_232)">
<g clip-path="url(#clip4_4424_232)">
<g clip-path="url(#clip5_4424_232)">
<g clip-path="url(#clip6_4424_232)">
<path d="M74.7675 27.6795L74.265 33.7335H45.0232V60.2702H72.1548L71.6524 66.3242H45.0232V92.2555H76.7772L76.2748 98.3095H38.1901V27.6795H74.7675ZM87.4289 99.1167C86.29 99.1167 85.466 98.7804 84.9569 98.1077C84.4611 97.4351 84.2133 96.4933 84.2133 95.2825C84.2133 94.0717 84.5281 93.0964 85.1579 92.3564C85.801 91.6165 86.759 91.2465 88.0318 91.2465C90.1755 91.2465 91.2474 92.6255 91.2474 95.3834C91.2474 96.527 90.8923 97.4351 90.1822 98.1077C89.4855 98.7804 88.5677 99.1167 87.4289 99.1167ZM141.994 29.4957L140.788 35.247C135.629 34.1034 131.241 33.5317 127.624 33.5317C114.627 33.5317 108.129 37.5004 108.129 45.4379C108.129 48.4649 109.081 50.7856 110.983 52.4C112.899 54.0144 115.311 55.3395 118.218 56.3755C121.139 57.4248 124.274 58.3665 127.624 59.2007C130.973 60.0482 134.089 61.1783 136.969 62.5909C143.735 65.9542 147.118 71.1001 147.118 78.0286C147.118 84.9571 144.539 90.2039 139.381 93.769C134.959 96.8633 129.131 98.4104 121.896 98.4104C112.919 98.4104 105.349 96.3588 99.1859 92.2555L101.799 87.1096C103.607 88.3877 106.187 89.5783 109.536 90.6815C112.886 91.7981 116.135 92.3564 119.283 92.3564C125.447 92.3564 130.303 91.3474 133.854 89.3294C138.141 86.8406 140.285 83.2754 140.285 78.634C140.285 75.2034 139.327 72.5262 137.411 70.6024C135.509 68.692 133.097 67.1449 130.176 65.961C127.269 64.7905 124.14 63.7815 120.791 62.934C117.441 62.0998 114.326 61.0438 111.445 59.7657C104.679 56.806 101.296 52.4 101.296 46.5478C101.296 40.6956 103.306 36.0542 107.325 32.6236C111.345 29.193 117.039 27.4777 124.408 27.4777C130.103 27.4777 135.964 28.1503 141.994 29.4957ZM157.75 99.1167C156.611 99.1167 155.794 98.7804 155.298 98.1077C154.789 97.4351 154.534 96.4933 154.534 95.2825C154.534 94.0717 154.856 93.0964 155.499 92.3564C156.129 91.6165 157.08 91.2465 158.353 91.2465C160.497 91.2465 161.568 92.6255 161.568 95.3834C161.568 96.527 161.22 97.4351 160.523 98.1077C159.813 98.7804 158.889 99.1167 157.75 99.1167Z" fill="#1E1E1E"/>
</g>
</g>
</g>
</g>
</g>
</g>
</g>
<path d="M72.3949 24.4363V2.10425H194.28V124.49H72.3949V102.158H78.8291V118.03H187.846V8.56485H78.8291V24.4363H72.3949Z" fill="#1E1E1E"/>
<defs>
<clipPath id="clip0_4424_232">
<rect width="123.398" height="71.6391" fill="white" transform="translate(38.1796 27.4777)"/>
</clipPath>
<clipPath id="clip1_4424_232">
<rect width="123.398" height="71.6391" fill="white" transform="translate(38.1796 27.4777)"/>
</clipPath>
<clipPath id="clip2_4424_232">
<rect width="123.398" height="71.6391" fill="white" transform="translate(38.1796 27.4777)"/>
</clipPath>
<clipPath id="clip3_4424_232">
<rect width="123.398" height="71.6391" fill="white" transform="translate(38.1796 27.4777)"/>
</clipPath>
<clipPath id="clip4_4424_232">
<rect width="123.398" height="71.6391" fill="white" transform="translate(38.1796 27.4777)"/>
</clipPath>
<clipPath id="clip5_4424_232">
<rect width="123.398" height="71.6391" fill="white" transform="translate(38.1796 27.4777)"/>
</clipPath>
<clipPath id="clip6_4424_232">
<rect width="123.398" height="71.6391" fill="white" transform="translate(38.1796 27.4777)"/>
</clipPath>
</defs>
</svg>
