<svg width="68" height="68" viewBox="0 0 68 68" fill="none" xmlns="http://www.w3.org/2000/svg">
<path d="M57.3184 0.00295209C56.9503 0.0148901 56.5818 0.0624833 56.2148 0.147483L4.39258 12.1787C2.92158 12.5197 1.66919 13.4199 0.867188 14.7139C0.297186 15.6329 0.00985938 16.6724 0.00585938 17.7354C0.00585938 17.7464 0 17.7556 0 17.7666V62.2354C0 65.4144 2.57428 67.999 5.73828 67.999H62.1367C65.3017 68 67.875 65.4144 67.875 62.2354V27.3838C67.875 26.2578 67.558 25.1647 66.957 24.2237C66.569 23.6157 66.0771 23.0882 65.4941 22.6592C65.2051 22.4462 64.8944 22.2596 64.5684 22.1026C63.9454 21.8036 63.2818 21.6206 62.5918 21.5576C62.5198 21.5406 62.4432 21.5322 62.3652 21.5322H42.0488L60.1445 17.2432C63.1725 16.5392 65.0691 13.4932 64.3711 10.4502L62.9805 4.39553C62.6395 2.91253 61.7488 1.65551 60.4668 0.854515C59.5128 0.257515 58.4225 -0.0328599 57.3184 0.00295209ZM57.3789 2.00295C58.0897 1.97961 58.7912 2.16508 59.4062 2.54983C60.2333 3.06683 60.8102 3.8818 61.0312 4.8428L62.4219 10.8975C62.8739 12.8685 61.6505 14.8409 59.6895 15.2959L33.3945 21.5283L33.3965 21.5322H5.73828C3.95728 21.5322 2.4687 20.2709 2.0957 18.5889C2.0707 18.4729 2.06187 18.3553 2.04688 18.2393C2.02987 18.1073 2.01081 17.9768 2.00781 17.8408C1.99381 17.1118 2.17841 16.3965 2.56641 15.7705C3.08741 14.9305 3.8957 14.347 4.8457 14.126L56.668 2.0967C56.9037 2.04195 57.142 2.01073 57.3789 2.00295ZM2 22.1377C3.005 23.0067 4.31228 23.5322 5.73828 23.5322H43.75V30.251C43.75 30.527 43.974 30.751 44.25 30.751C44.526 30.751 44.75 30.527 44.75 30.251V23.5322H62.2207C62.2477 23.5362 62.2757 23.54 62.3027 23.542C62.7927 23.573 63.2641 23.6962 63.7031 23.9072C63.9171 24.0102 64.1196 24.1315 64.3086 24.2705C64.6916 24.5525 65.0165 24.8998 65.2715 25.2998C65.6665 25.9198 65.875 26.6388 65.875 27.3838V36.499H56.625C56.349 36.499 56.125 36.723 56.125 36.999C56.125 37.275 56.349 37.499 56.625 37.499H65.875V50.8916H62.125C61.849 50.8916 61.625 51.1156 61.625 51.3916C61.625 51.6676 61.849 51.8916 62.125 51.8916H65.875V62.2354C65.875 64.3114 64.1977 66.001 62.1367 66.001H5.73828C3.67628 66.001 2 64.3114 2 62.2354V50.3018C2.952 51.2788 4.27328 51.8916 5.73828 51.8916H37.375C37.651 51.8916 37.875 51.6676 37.875 51.3916C37.875 51.1156 37.651 50.8916 37.375 50.8916H5.73828C4.11028 50.8916 2.709 49.9518 2 48.5928V35.9112C2.951 36.8882 4.27428 37.4971 5.73828 37.4971H9.625C9.901 37.4971 10.125 37.2731 10.125 36.9971C10.125 36.7211 9.901 36.4971 9.625 36.4971H5.73828C4.11028 36.4971 2.709 35.5592 2 34.2002V22.1377ZM14.375 36.499C14.099 36.499 13.875 36.723 13.875 36.999C13.875 37.275 14.099 37.499 14.375 37.499H23.125V49.126C23.125 49.402 23.349 49.626 23.625 49.626C23.901 49.626 24.125 49.402 24.125 49.126V37.499H49.25C49.526 37.499 49.75 37.275 49.75 36.999C49.75 36.723 49.526 36.499 49.25 36.499H14.375ZM52.375 36.499C52.099 36.499 51.875 36.723 51.875 36.999C51.875 37.275 52.098 37.498 52.373 37.499L54.498 37.501H54.5C54.775 37.501 55 37.277 55 37.001C55 36.725 54.777 36.501 54.502 36.501L52.377 36.499H52.375ZM40.625 50.8916C40.349 50.8916 40.125 51.1156 40.125 51.3916C40.125 51.6676 40.349 51.8916 40.625 51.8916H56.25C56.526 51.8916 56.75 51.6676 56.75 51.3916C56.75 51.1156 56.526 50.8916 56.25 50.8916H40.625Z" fill="black"/>
</svg>
