<svg width="560" height="560" viewBox="0 0 560 560" fill="none" xmlns="http://www.w3.org/2000/svg">
<path d="M72.31 132.58L439.425 47.5183C457.17 43.4117 474.752 54.4366 478.847 72.24L488.693 115.045C492.788 132.86 481.798 150.5 464.053 154.618L96.9383 239.692C79.1933 243.798 61.74 232.75 57.5167 214.97L47.6117 173.238C43.225 154.723 54.565 136.698 72.31 132.58Z" fill="black"/>
<path d="M46.6667 165.223V267.505C46.6667 286.172 61.635 301.198 80.2317 301.198H513.333V239.412V233.217C513.333 214.97 499.275 200.142 481.39 198.998V198.917H80.2317C61.635 198.917 46.6667 183.89 46.6667 165.223Z" fill="black"/>
<path d="M353.442 198.917V301.198H513.333V239.412V233.217C513.333 214.97 499.275 200.142 481.39 198.998V198.917H353.442Z" fill="black"/>
<path d="M46.6667 267.505V377.883C46.6667 387.87 50.9484 396.807 57.785 402.967H513.333V301.198H80.2317C61.635 301.198 46.6667 286.172 46.6667 267.505Z" fill="black"/>
<path d="M46.6667 267.505V377.883C46.6667 387.87 50.9484 396.807 57.785 402.967H206.838V301.198H80.2317C61.635 301.198 46.6667 286.172 46.6667 267.505Z" fill="black"/>
<path d="M46.6667 369.273V479.652C46.6667 498.307 61.635 513.333 80.2317 513.333H479.768C498.365 513.333 513.333 498.307 513.333 479.64V402.955H80.2317C61.635 402.955 46.6667 387.94 46.6667 369.273Z" fill="black"/>
<path opacity="0.05" d="M277.083 198.333L322.023 187.25H80.2317C68.1567 187.25 58.3334 177.368 58.3334 165.223H46.6667C46.6667 183.89 61.635 198.917 80.2317 198.917H278.483L277.083 198.333Z" fill="black"/>
<path opacity="0.07" d="M277.083 198.333L298.375 193.083H80.2317C64.9367 193.083 52.5 180.588 52.5 165.223H46.6667C46.6667 183.89 61.635 198.917 80.2317 198.917H278.483L277.083 198.333Z" fill="black"/>
</svg>
