<svg width="484" height="503" viewBox="0 0 484 503" fill="none" xmlns="http://www.w3.org/2000/svg">
<path fill-rule="evenodd" clip-rule="evenodd" d="M0 172.734C0 251.412 123.897 502.825 241.453 502.825C359.012 502.825 483.322 262.531 483.322 163.666C483.322 101.156 425.178 0 240.759 0C56.3438 0 0 111.744 0 172.734ZM156.372 190.341C112.334 142.803 85.0031 94.6156 85.0031 94.6156C85.0031 94.6156 130.034 72.1937 159.453 66.2062C161.959 65.6969 164.516 65.15 167.134 64.5937C195.25 58.6062 230.225 51.1625 280.659 69.2688C385.594 106.944 430.334 177.412 430.334 177.412C430.334 177.412 362.806 123.034 288.447 112.116C245.612 105.825 165.938 131.341 165.938 131.341C165.938 131.341 193.631 160.653 216.172 203.572C219.725 210.337 223.187 216.531 226.503 222.462C244.216 254.141 257.672 278.206 257.672 340.994C257.672 386.803 223.047 454.878 223.047 454.878C223.047 454.878 242.494 366.181 226.809 296.05C215.475 245.353 206.731 237.553 186.122 219.166C178.222 212.119 168.575 203.516 156.372 190.341Z" fill="black"/>
</svg>
