<svg width="460" height="479" viewBox="0 0 460 479" fill="none" xmlns="http://www.w3.org/2000/svg">
<path fill-rule="evenodd" clip-rule="evenodd" d="M229.575 478.089C117.802 478.089 0 239.044 0 164.237C0 106.247 53.5719 0 228.915 0C404.262 0 459.545 96.1799 459.545 155.614C459.545 249.616 341.351 478.089 229.575 478.089Z" fill="black"/>
<path fill-rule="evenodd" clip-rule="evenodd" d="M80.8214 89.9611C80.8214 89.9611 106.808 135.778 148.679 180.977C190.55 226.176 200.742 214.805 215.652 281.486C230.564 348.167 212.074 432.501 212.074 432.501C212.074 432.501 244.996 367.774 244.996 324.219C244.996 253.348 226.966 234.365 205.537 193.557C184.106 152.75 157.774 124.879 157.774 124.879C157.774 124.879 233.53 100.619 274.257 106.6C344.958 116.982 409.164 168.685 409.164 168.685C409.164 168.685 366.625 101.683 266.852 65.8611C214.433 47.0411 179.58 57.2534 151.609 62.9493C123.637 68.6422 80.8214 89.9611 80.8214 89.9611Z" fill="white"/>
</svg>
